# xmcd
#
# Track frame offsets:
#	150
#	32982
#	59335
#	102149
#	133679
#	160654
#	194433
#	224249
#	243247
#	270679
#	292828
#
# Disc length: 4325 seconds
#
# Revision: 0
# Processed by: cddbd v1.4PL0 Copyright (c) Steve Scherf et al.
# Submitted via: audiograbber 1.81.02
#
DISCID=a510e30b
DTITLE=Various Artist - Platipus 8 - CD1 Mixed By Matt Hardwick
DYEAR=2002
DGENRE=Trance
TTITLE0=Indiana - In My Veins (Adam Dived Remix)
TTITLE1=Patrick Reid - Goose
TTITLE2=Leama - Melodica (Original Melodic Mix)
TTITLE3=Rouge - Retro Piano
TTITLE4=Mona Lisa Overdrive - Born To Synthesize (Praha Remix)
TTITLE5=Indiana - Do You Hear Me (Classified Project Remix)
TTITLE6=Jamnesia - Get Busy
TTITLE7=Pob and Boyd - Luna (Rouge Remix)
TTITLE8=Art Of Trance - Love Washes Over (Airwave Remix)
TTITLE9=Kansai - Rococco
TTITLE10=Indiana - In My Veins (Greg Murray Remix)
EXTD=
EXTT0=
EXTT1=
EXTT2=
EXTT3=
EXTT4=
EXTT5=
EXTT6=
EXTT7=
EXTT8=
EXTT9=
EXTT10=
PLAYORDER=
